#!OML:ASF H:\GeneralSubjects\Female5\Project 1\Capture day 1\Session 1\Female5.ASF
:FULLY-SPECIFIED
:DEGREES
559
root -2.05072 15.9142 6.13195 -171.194 19.5746 -173.003
lowerback 11.3409 3.12242 -3.59258
upperback -8.44317 3.64784 -2.4832
thorax -15.9712 2.03538 -1.74861
lowerneck -10.9452 -6.34254 1.05896
upperneck 29.724 -9.4911 7.60717
head 11.9088 -2.28469 1.57815
rclavicle -3.85642e-014 3.81667e-014
rhumerus -48.762 11.5104 -74.7164
rradius 43.8917
rwrist -10.144
rhand -27.3763 -16.7096
rfingers 7.12502
rthumb -0.783576 -46.6879
lclavicle -3.85642e-014 3.81667e-014
lhumerus -50.1223 -0.892442 60.4462
lradius 31.4128
lwrist -22.5916
lhand -36.2353 31.8158
lfingers 7.12502
lthumb -9.33688 61.589
rfemur -20.0676 11.9862 19.867
rtibia 13.1671
rfoot 341.081 -23.0857
rtoes -6.43232
lfemur 0.181811 -27.1028 -22.0018
ltibia 5.01782
lfoot 327.884 42.7737
ltoes -66.6938
560
root -2.06592 15.9224 6.23992 -171.313 19.819 -172.957
lowerback 11.295 3.26309 -3.60625
upperback -8.39077 3.84111 -2.41267
thorax -15.886 2.12776 -1.70158
lowerneck -10.7339 -6.55298 0.874615
upperneck 30.3985 -9.66965 7.54929
head 12.1499 -2.31761 1.59038
rclavicle -3.97569e-016 1.90833e-014
rhumerus -48.4938 11.815 -74.9676
rradius 44.3814
rwrist -9.6279
rhand -26.8799 -16.2535
rfingers 7.12502
rthumb -0.304071 -46.233
lclavicle -3.97569e-016 1.90833e-014
lhumerus -50.7934 1.5897 59.4904
lradius 30.5298
lwrist -24.1469
lhand -35.5033 29.8871
lfingers 7.12502
lthumb -8.63052 59.6907
rfemur -18.2884 10.9002 20.0393
rtibia 14.5023
rfoot 339.262 -22.7388
rtoes -7.02332
lfemur 0.248458 -27.7402 -21.9029
ltibia 4.69159
lfoot 327.628 43.5079
ltoes -66.7863
561
root -2.07936 15.9271 6.34711 -171.387 19.8387 -172.447
lowerback 11.4122 3.34246 -3.05865
upperback -8.34205 4.05248 -2.2034
thorax -15.8738 2.17164 -1.82466
lowerneck -10.571 -6.72712 0.726576
upperneck 30.9573 -9.80485 7.46256
head 12.3518 -2.34277 1.58705
rclavicle -1.49089e-014 -5.88403e-014
rhumerus -48.5063 12.5873 -75.4724
rradius 45.1389
rwrist -9.48398
rhand -26.78 -16.0639
rfingers 7.12502
rthumb -0.207626 -46.0436
lclavicle -1.49089e-014 -5.88403e-014
lhumerus -51.2757 3.58161 59.1757
lradius 29.3421
lwrist -24.3931
lhand -38.9162 37.4974
lfingers 7.12502
lthumb -11.9229 67.1379
rfemur -16.0581 10.2014 20.7216
rtibia 15.4366
rfoot 336.564 -22.5683
rtoes -4.90308
lfemur 0.414794 -28.5261 -21.3298
ltibia 4.37569
lfoot 327.222 44.1118
ltoes -66.7922
562
root -2.07708 15.9313 6.44955 -171.474 19.7779 -172.229
lowerback 11.358 3.3861 -2.85147
upperback -8.31031 4.16415 -2.051
thorax -15.7951 2.20934 -1.78774
lowerneck -10.4111 -6.89479 0.760916
upperneck 31.425 -9.95377 7.31722
head 12.5059 -2.36749 1.52637
rclavicle -7.69297e-014 2.06736e-014
rhumerus -48.5958 13.4547 -76.1374
rradius 45.8335
rwrist -9.22949
rhand -26.8341 -15.8793
rfingers 7.12502
rthumb -0.259894 -45.8589
lclavicle -7.69297e-014 2.06736e-014
lhumerus -51.8676 5.1367 58.6968
lradius 28.856
lwrist -27.0002
lhand -35.2113 28.4535
lfingers 7.12502
lthumb -8.34868 58.2685
rfemur -13.7682 9.48571 21.0414
rtibia 16.0879
rfoot 333.815 -22.8381
rtoes -3.54002
lfemur 0.447274 -29.2408 -20.9258
ltibia 4.03387
lfoot 327.196 44.5786
ltoes -66.7605
563
root -2.06476 15.9317 6.54794 -171.54 19.7348 -172.232
lowerback 11.1506 3.43764 -2.85937
upperback -8.30711 4.25503 -1.95501
thorax -15.6669 2.26227 -1.68106
lowerneck -10.1418 -7.09949 0.518808
upperneck 31.7078 -10.1465 7.34122
head 12.5908 -2.44395 1.56831
rclavicle -4.01545e-014 9.54166e-015
rhumerus -48.6114 13.9683 -76.6776
rradius 46.2443
rwrist -8.43278
rhand -26.761 -15.4317
rfingers 7.12502
rthumb -0.189249 -45.4114
lclavicle -4.01545e-014 9.54166e-015
lhumerus -52.4848 5.27499 59.3918
lradius 28.7423
lwrist -27.2506
lhand -34.4064 28.8119
lfingers 7.12502
lthumb -7.57186 58.6564
rfemur -11.5375 8.44247 21.0788
rtibia 16.5867
rfoot 331.739 -23.3689
rtoes -3.0223
lfemur 0.346521 -29.7503 -20.656
ltibia 3.72275
lfoot 328.032 45.2444
ltoes -67.0837
564
root -2.05035 15.925 6.64656 -171.625 19.6394 -172.257
lowerback 10.9643 3.48857 -2.86929
upperback -8.31895 4.34744 -1.83838
thorax -15.5734 2.31758 -1.55338
lowerneck -10.2137 -7.23848 0.652527
upperneck 32.2759 -10.2231 6.91269
head 12.8082 -2.45564 1.38575
rclavicle -6.4605e-014 -1.11319e-014
rhumerus -48.7279 14.3754 -77.1752
rradius 46.675
rwrist -7.73431
rhand -26.7679 -15.0271
rfingers 7.12502
rthumb -0.195912 -45.0067
lclavicle -6.4605e-014 -1.11319e-014
lhumerus -52.8926 4.9699 60.5437
lradius 28.5116
lwrist -26.7812
lhand -34.989 28.3576
lfingers 7.12502
lthumb -8.13417 58.1811
rfemur -9.32649 7.25845 21.0839
rtibia 17.107
rfoot 329.841 -23.5853
rtoes -2.14073
lfemur 0.225728 -30.3482 -20.4328
ltibia 3.54388
lfoot 329.154 45.9542
ltoes -67.517
